<svg width="12px" height="13px" viewBox="0 0 12 13" version="1.1" xmlns="http://www.w3.org/2000/svg" xmlns:xlink="http://www.w3.org/1999/xlink">
    <g stroke="none" stroke-width="1" fill="none" fill-rule="evenodd">
        <g transform="translate(-7.000000, -6.000000)">
            <mask id="mask-2" fill="white">
                <path d="M11.9027291,15.2912077 L15.4885156,15.2912077 C16.0408003,15.2912077 16.4885156,15.738923 16.4885156,16.2912077 C16.4885156,16.8434924 16.0408003,17.2912077 15.4885156,17.2912077 L9.48851557,17.2912077 C8.93623082,17.2912077 8.48851557,16.8434924 8.48851557,16.2912077 L8.48851557,10.2912077 C8.48851557,9.73892295 8.93623082,9.2912077 9.48851557,9.2912077 C10.0408003,9.2912077 10.4885156,9.73892295 10.4885156,10.2912077 L10.4885156,13.8769941 L15.7814088,8.58410092 C16.1719331,8.19357663 16.8050981,8.19357663 17.1956223,8.58410092 C17.5861466,8.97462521 17.5861466,9.60779019 17.1956223,9.99831448 L11.9027291,15.2912077 Z" id="path-1"></path>
            </mask>
            <use fill="#FFFFFF" fill-rule="nonzero" transform="translate(12.988516, 12.791208) scale(1, -1) rotate(-225.000000) translate(-12.988516, -12.791208) " xlink:href="#path-1"></use>
        </g>
    </g>
</svg>
