<svg height="22" viewBox="0 0 22 22" width="22" xmlns="http://www.w3.org/2000/svg"><path d="m27.905296 33.126751c1.3579834 0 2.7160554-.0000886 4.0740388.0002659.1204713 0 .2410312.0044324.3615912.0052302.081112.0005319.1413919-.0234028.1658585-.1147092.1706455-.6365741.3443936-1.2722618.5174325-1.9081267.0363453-.1336797.0085988-.1705568-.1265879-.165238-.0353701.001507-.0708289.003014-.1062877.0029253-1.0814048-.0007091-2.1628095-.0019502-3.244303-.0023048-.687812-.0002659-1.3757128.0003546-2.0635248.0016843-.0833282.0001773-.121801-.032888-.099196-.1171913.0641804-.2394356.1303997-.4783392.1948461-.7177748.1454697-.5405694.3001587-1.0790999.4301152-1.6233925.04521-.1889954.1304884-.2907622.3127466-.3513967.4403097-.1461789.8742368-.3116829 1.3120643-.4651308.103451-.036168.1704682-.096182.1956439-.2028244.0195024-.0827076.039182-.1653266.0612551-.2474137.0987528-.3658462.1991898-.7312492.2959037-1.0976272.009042-.0341291.0089533-.0858103-.0108149-.1074402-.0158679-.0174634-.0710949-.0107263-.1035397.0004433-.1272971.0437916-.2522894.0940544-.3785227.1408601-.3451915.1281835-.6901169.2568103-1.0363721.3820685-.0325335.0117901-.0755273.0073577-.1089472-.0038118-.0098398-.0032799-.010549-.0576205-.0031026-.0852784.1249922-.4615849.2534418-.9221061.3779021-1.383691.1596533-.5917188.3170904-1.1839694.4739956-1.7763973.0997278-.3767497.1974168-.7540314.2946626-1.1314017.0249984-.0968911-.0055848-.1307543-.1046921-.1300451-.5956192.0040778-1.1911498.0088647-1.786769.0103717-.453784.0011524-.9076566.0013297-1.3614406-.0061167-.0994619-.0016842-.153182.0250871-.177294.1215351-.0498196.1992784-.1028305.3978477-.1561074.5962397-.1020327.3798524-.2064588.7591729-.3076937 1.1392913-.150434.5648587-.2983858 1.1303379-.4483765 1.6953738-.0890903.3356176-.1795989.6707919-.2699302 1.0060549-.1140886.4241759-.2303935.8477312-.3414682 1.2727936-.0234915.090154-.0757932.1346548-.1599192.1638197-.2978539.103451-.5889707.2303935-.8923207.3126579-.2518461.0683469-.3392521.2247202-.3916425.4590142-.0873172.3900468-.2066361.7728245-.3102645 1.1593255-.0082441.0308491.0004433.0662193.0013298.0995505.0334199-.0016842.0698538.004787.0999938-.0061166.353081-.1280949.7050096-.2592925 1.0580019-.3876533.0270374-.0098398.0704744-.0163111.0868741-.0020389.0166656.0145381.0185272.0590389.0113468.0863422-.1047808.3973158-.2125755.7939225-.3187746 1.1909724-.0879378.3285258-.1746346.6574948-.2621292.9861979-.0921929.345812-.181815.6922444-.2786175 1.0367267-.0382069.1358958-.0242893.1632878.1193188.1632878 1.4679057-.0000887 2.9358114-.0000887 4.4037171.0000886m.0953842-16.126751c6.0752449-.0000886 10.9999403 4.9254046 10.9993198 11.0011814-.0005319 6.0800319-4.9425135 11.0263572-11.0569404 10.9964832-6.0428001-.0296081-10.9572125-4.9473892-10.943029-11.0488736.0140063-6.0299462 4.9474778-10.948791 11.0006496-10.948791" fill="#fff" fill-rule="evenodd" transform="translate(-17 -17)"/></svg>