<svg width="22px" height="24px" viewBox="0 0 22 24" version="1.1" xmlns="http://www.w3.org/2000/svg" xmlns:xlink="http://www.w3.org/1999/xlink">
  <g stroke="none" stroke-width="1" fill="none" fill-rule="evenodd">
    <g transform="translate(-555.000000, -231.000000)">
      <g transform="translate(241.000000, 150.000000)">
        <g>
          <g transform="translate(300.000000, 68.000000)">
            <mask id="mask-2" fill="white">
              <path d="M22.8898637,29.4061687 L29.7856069,29.4061687 C30.8476929,29.4061687 31.7086838,30.2671595 31.7086838,31.3292456 C31.7086838,32.3913316 30.8476929,33.2523225 29.7856069,33.2523225 L18.2471453,33.2523225 C17.1850593,33.2523225 16.3240684,32.3913316 16.3240684,31.3292456 L16.3240684,19.790784 C16.3240684,18.728698 17.1850593,17.8677071 18.2471453,17.8677071 C19.3092314,17.8677071 20.1702222,18.728698 20.1702222,19.790784 L20.1702222,26.6865272 L30.348863,16.5078864 C31.0998713,15.7568781 32.3174963,15.7568781 33.0685045,16.5078864 C33.8195128,17.2588946 33.8195128,18.4765196 33.0685045,19.2275278 L22.8898637,29.4061687 Z" id="path-1"></path>
            </mask>
            <use fill="#676680" fill-rule="nonzero" transform="translate(24.977915, 24.598476) scale(1, -1) rotate(-225.000000) translate(-24.977915, -24.598476) " xlink:href="#path-1"></use>
          </g>
        </g>
      </g>
    </g>
  </g>
</svg>
