<svg width="22px" height="23px" viewBox="0 0 22 23" version="1.1" xmlns="http://www.w3.org/2000/svg" xmlns:xlink="http://www.w3.org/1999/xlink">
    <g stroke="none" stroke-width="1" fill="none" fill-rule="evenodd">
      <g transform="translate(-322.000000, -1642.000000)">
        <g transform="translate(273.000000, 1564.000000)">
          <g transform="translate(35.000000, 64.000000)">
            <mask id="mask-2" fill="white">
              <path d="M22.9560972,30.2347537 L29.8518404,30.2347537 C30.9139265,30.2347537 31.7749173,31.0957446 31.7749173,32.1578307 C31.7749173,33.2199167 30.9139265,34.0809076 29.8518404,34.0809076 L18.3133789,34.0809076 C17.2512928,34.0809076 16.3903019,33.2199167 16.3903019,32.1578307 L16.3903019,20.6193691 C16.3903019,19.5572831 17.2512928,18.6962922 18.3133789,18.6962922 C19.3754649,18.6962922 20.2364558,19.5572831 20.2364558,20.6193691 L20.2364558,27.5151123 L30.4150966,17.3364715 C31.1661048,16.5854632 32.3837298,16.5854632 33.134738,17.3364715 C33.8857463,18.0874797 33.8857463,19.3051047 33.134738,20.0561129 L22.9560972,30.2347537 Z" id="path-1"></path>
            </mask>
            <use fill="#676680" fill-rule="nonzero" transform="translate(25.044148, 25.427061) rotate(-225.000000) translate(-25.044148, -25.427061) " xlink:href="#path-1"></use>
          </g>
        </g>
      </g>
    </g>
</svg>
