<svg width="60" height="60" viewBox="0 0 60 60" version="1.1" xmlns="http://www.w3.org/2000/svg" xmlns:xlink="http://www.w3.org/1999/xlink"><g stroke="none" stroke-width="1" fill="none" fill-rule="evenodd"><g transform="translate(-274.000000, -987.000000)"><rect stroke="#E5E5E9" fill="#FFF" x="274.5" y="987.5" width="59" height="59" rx="5"/><path d="M303.968085,1009.99545 C305.510332,1009.99545 307.052719,1009.99024 308.594896,1009.99996 C308.889198,1010.00187 309.006028,1009.92885 308.999762,1009.64174 C308.981381,1008.80594 309.00561,1007.96932 308.989109,1007.13346 C308.970798,1006.20367 308.635905,1005.37194 307.978443,1004.65663 C306.590762,1003.14696 304.146671,1002.59828 302.12332,1003.30583 C300.426367,1003.89932 298.898672,1005.33623 299.005266,1007.48698 C299.03611,1008.11014 299.005823,1008.73578 299.011115,1009.36015 C299.016963,1010.05481 298.902362,1009.99374 299.689116,1009.99507 C301.115439,1009.99749 302.541762,1009.99571 303.968085,1009.99545 Z M303.498391,1015.00578 C300.794993,1015.00578 298.091596,1015.00989 295.388267,1015.00001 C295.087197,1014.99892 294.99932,1015.08172 295.000004,1015.36346 C295.008696,1019.25428 295.007601,1023.1451 295.00192,1027.03592 C295.001578,1027.27065 295.08268,1027.3961 295.317773,1027.49782 C297.973673,1028.64789 300.622729,1029.81168 303.278971,1030.96118 C303.401342,1031.01415 303.59585,1031.01236 303.718906,1030.95919 C306.354548,1029.81919 308.983208,1028.66476 311.618781,1027.5245 C311.894322,1027.40534 312.000884,1027.26482 311.999994,1026.97101 C311.988565,1023.12297 311.992466,1019.27487 311.992261,1015.42683 C311.992192,1015.00694 311.991029,1015.00591 311.540143,1015.00591 C308.859536,1015.00553 306.178998,1015.00572 303.498391,1015.00578 Z M317.993396,1020.41854 C317.993463,1023.74976 317.989626,1027.08104 317.999994,1030.41225 C318.00087,1030.70436 317.901626,1030.84586 317.625172,1030.9693 C313.177798,1032.95584 308.737157,1034.95629 304.28911,1036.94154 C304.131425,1037.01193 303.883047,1037.02222 303.728728,1036.95338 C299.269976,1034.96477 294.818966,1032.96031 290.362166,1030.96755 C290.10241,1030.85142 290.000271,1030.7173 290.000608,1030.43535 C290.008822,1023.76205 290.00936,1017.08881 290.000002,1010.41557 C289.99953,1010.08704 290.096013,1009.9898 290.436902,1009.99575 C291.52481,1010.01477 292.613458,1009.99264 293.701433,1010.00875 C294.018824,1010.01347 294.101639,1009.90504 294.1011,1009.61552 C294.099081,1008.54866 294.054037,1007.47636 294.14675,1006.41596 C294.4228,1003.25982 296.081459,1000.90424 298.891383,999.323289 C303.284893,996.851515 309.013814,997.941929 312.009364,1001.76498 C313.250312,1003.34871 313.887584,1005.12841 313.888931,1007.11424 C313.889469,1007.95518 313.899165,1008.79619 313.88415,1009.63687 C313.879033,1009.9218 313.982115,1010.01102 314.27392,1010.00759 C315.339542,1009.99491 316.4055,1010.00274 317.471324,1010.0028 C317.993463,1010.0028 317.993396,1010.00267 317.993396,1010.48946 L317.993396,1020.41854 Z" id="Fill-1" fill="#000"/></g></g></svg>