<svg height="22" viewBox="0 0 22 22" width="22" xmlns="http://www.w3.org/2000/svg"><path d="m11.000244 0c6.0652632 0 10.999756 4.93400475 10.999756 10.999756 0 6.0657512-4.9340047 11.000244-10.999756 11.000244-6.06575122 0-11.000244-4.9349808-11.000244-11.000244 0-6.06526322 4.93449278-10.999756 11.000244-10.999756zm0 20.1840325c5.0638213 0 9.1837885-4.1204552 9.1837885-9.1842765 0-5.06382131-4.1194792-9.18378848-9.1837885-9.18378848-5.06430931 0-9.18427648 4.11947914-9.18427648 9.18378848 0 5.0643093 4.11996717 9.1842765 9.18427648 9.1842765zm3.9228022-12.6131902-.8481998 1.07757492-3.8046984 5.23609668h4.6528982v2.2224982h-3.0013975v1.8354888h-.2210786v.0078086h-1.4011402v-.0078086h-.2210786v-1.8354888h-3.00090948v-1.6778544l.8477118-1.0775749 3.80469838-5.23609665h-4.65241018v-2.22249828h3.00090948v-1.8413452h1.8432974v1.8413452h3.0013975z" fill="#fff"/></svg>