<?xml version="1.0" encoding="UTF-8"?>
<svg viewBox="0 0 22 20" version="1.1" xmlns="http://www.w3.org/2000/svg" xmlns:xlink="http://www.w3.org/1999/xlink">
    <!-- Generator: Sketch 55.2 (78181) - https://sketchapp.com -->
    <title>icon</title>
    <g id="Symbols" stroke="none" stroke-width="1" fill-rule="evenodd">
        <g id="icon/activity" transform="translate(-2.000000, -3.000000)">
            <path d="M10.9486833,3.68377223 C10.6447845,2.77207592 9.35521547,2.77207592 9.0513167,3.68377223 L6.27924078,12 L3,12 C2.44771525,12 2,12.4477153 2,13 C2,13.5522847 2.44771525,14 3,14 L7,14 C7.43043041,14 7.81256925,13.7245699 7.9486833,13.3162278 L10,7.16227766 L15.0513167,22.3162278 C15.3552155,23.2279241 16.6447845,23.2279241 16.9486833,22.3162278 L19.7207592,14 L23,14 C23.5522847,14 24,13.5522847 24,13 C24,12.4477153 23.5522847,12 23,12 L19,12 C18.5695696,12 18.1874307,12.2754301 18.0513167,12.6837722 L16,18.8377223 L10.9486833,3.68377223 Z" id="path-1"></path>
        </g>
    </g>
</svg>