<svg viewBox="0 0 14 24" xmlns="http://www.w3.org/2000/svg"><path d="m14 5h4c.5522847 0 1 .44771525 1 1s-.4477153 1-1 1h-4v5h1.5c2.4852813 0 4.5 2.0147186 4.5 4.5s-2.0147187 4.5-4.5 4.5h-1.5v3c0 .5522847-.4477153 1-1 1s-1-.4477153-1-1v-3h-5c-.55228475 0-1-.4477153-1-1s.44771525-1 1-1h5v-5h-1.5c-2.48528137 0-4.5-2.0147186-4.5-4.5 0-2.48528137 2.01471863-4.5 4.5-4.5h1.5v-3c0-.55228475.4477153-1 1-1s1 .44771525 1 1zm0 9v5h1.5c1.3807118 0 2.5-1.1192882 2.5-2.5s-1.1192882-2.5-2.5-2.5zm-2-2v-5h-1.5c-1.38071187 0-2.5 1.11928813-2.5 2.5 0 1.3807119 1.11928813 2.5 2.5 2.5z" transform="translate(-6 -1)"/></svg>
