<svg height="22" viewBox="0 0 22 22" width="22" xmlns="http://www.w3.org/2000/svg"><path d="m8.06654796 5.76774168v9.66413032c-.05741708 0-.10509754-.0000508-.15277799 0-.44854455.0003557-.89714188.0042178-1.34560727-.0013467-.11267047-.0013974-.14069296.0348862-.13958473.1377407.00488151.4488196.0060689.8977663-.00065966 1.3465097-.00171512.1149744.02807526.1517155.1521711.1505467.63757762-.0060219 1.27526079-.0008893 1.91286481-.0050818.10251165-.000686.13868758.0258153.13623363.1275264-.00643831.2666137.00358857.5336847-.00546201.8001714-.00398437.1165244.03008064.1561112.15364874.1534941.33845997-.0071653.67715741-.0030745 1.01574931-.0034302.04715273-.0000508.09430545 0 .16283126 0v-1.0753225c.39054695 0 .75964165.0016008 1.12871005-.001245.0808483-.0006098.093593.0362329.0930653.1016857-.0021637.2752273-.0011874.5504799-.0003431.8257072.000132.0490134.0049343.097976.0076785.1481582h1.322308v-1.1161034c.0534327-.0071653.096258-.0123486.1388987-.0187262.3942674-.0591261.7951843-.0922083 1.1812192-.183578.6693998-.1584488 1.2929925-.4307795 1.7809322-.9134689 1.0415817-1.0303998 1.288797-2.2652128.8869039-3.6159149-.2773488-.9320681-.9184358-1.5931267-1.8492997-1.9817023-.0862576-.0360295-.1726207-.071805-.2595906-.1079616.0082325-.0142797.0093144-.0192852.0123752-.021013.0226397-.0126536.0455696-.0248498.0685786-.0368681.4297574-.22400327.7831257-.52763747 1.0418192-.92929851.7126209-1.10644811.6725662-2.80298832-.3133136-3.8927429-.438333-.48446806-.9459042-.86069497-1.6171774-.98240274-.3189075-.05783024-.6418786-.09599414-.9639789-.13570797-.0811914-.01003644-.1141218-.0300077-.1117998-.11411056.0058842-.211553.0019526-.4233855.0019263-.63511636v-.39904394c-.4150073 0-.8099872.00332854-1.2048352-.00226138-.1036463-.0014737-.1259429.03544517-.1243861.12572235.0047496.27517643-.0021373.55055614.0040108.82568175.0022956.10209224-.0250936.14155198-.1386348.13799476-.2504082-.0078767-.5012649-.00246464-.7519105-.00246464h-.33629625c0-.06245464.00002639-.10829197 0-.15410389-.00015832-.2710094-.00237479-.54204422.00084437-.81302821.00094991-.07922439-.01923578-.11095988-.1108498-.10976567-.36049271.00470061-.72114375.00302364-1.08168924-.00134666-.0996883-.00119421-.14040271.02436696-.13710439.12945742.00794234.25383311.00263865.50807276.00269143.76213455v.18665246h-.16050924c-.63322385 0-1.26647409.00078767-1.89969794-.00091472-.08356612-.00022868-.13950556.00243924-.13821262.11116315.00559395.46998509.00379966.9400464.00089714 1.41008231-.00050134.0815874.02556855.11400892.1131982.11118856.15813445-.00508175.31655915-.00165157.47487831-.00167698.34656063-.00002541.69312126 0 1.04928659 0zm2.93280954 15.42400762c-6.0626737-.0037859-10.89921836-4.6851647-10.99777203-10.3953425-.10348796-5.99673734 4.86456714-10.69341213 10.80024253-10.78833911 6.2388302-.09975463 11.2997395 4.77691553 11.1966209 10.77614291-.0984217 5.7247116-4.9405339 10.4043117-10.9990914 10.4075387zm-.9393064-6.0546273v-4.212463c.0352129-.0046533.0676159-.0131094.0998127-.012534.6953636.0123339 1.3915264.0099572 2.0857815.0441819.4859941.0239422.9642547.1152581 1.3763173.3987625.5477068.3768718.8112103.9022257.8367048 1.543263.0182251.4571047-.0543144.8989734-.3115796 1.2945837-.314441.4835237-.7728783.7601232-1.3491472.8509136-.8948859.1410267-1.7979435.1092038-2.6993255.1068021-.008017-.0000251-.0160082-.0054039-.038564-.0135098zm.0176176-9.06542414c.0285081-.00285201.0579475-.00840851.0873611-.00835934.5084117.00115556 1.0170821-.00545815 1.5251575.007548.3538161.00904775.7015528.07132483 1.0348285.19142887.6158216.22194046.9920406.63034336 1.0822472 1.26012123.0507041.35406719.0276803.70420058-.0914484 1.04312262-.1950554.55503554-.6169339.88422141-1.2071447.99358124-.4074434.0755045-.8259589.10729458-1.2412407.130922-.364914.02077542-.7322339.0012539-1.0984673.00368795-.0762113.00051631-.1090654-.01804634-.1089102-.09529647.0025352-1.16706212.0030784-2.33412424.0043202-3.50116177.0000258-.0035896.0035699-.00715461.0132968-.02559433z" fill="#fff" fill-rule="evenodd"/></svg>