<svg viewBox="0 0 18 16" xmlns="http://www.w3.org/2000/svg"><path d="m17.1538462 26.1538462v-9.2307693h-2.3076924c-.4248344 0-.7692307.3443964-.7692307.7692308v7.6923077c0 .4248344.3443963.7692308.7692307.7692308zm1.5384615 0h4.6153846v-9.2307693h-4.6153846zm6.1538461 0h2.3076924c.4248344 0 .7692307-.3443964.7692307-.7692308v-7.6923077c0-.4248344-.3443963-.7692308-.7692307-.7692308h-2.3076924zm-7.6923076-10.7692308v-.7692308c0-1.2745033 1.033189-2.3076923 2.3076923-2.3076923h3.076923c1.2745033 0 2.3076923 1.033189 2.3076923 2.3076923v.7692308h2.3076924c1.2745032 0 2.3076923 1.033189 2.3076923 2.3076923v7.6923077c0 1.2745033-1.0331891 2.3076923-2.3076923 2.3076923h-12.3076924c-1.2745032 0-2.3076923-1.033189-2.3076923-2.3076923v-7.6923077c0-1.2745033 1.0331891-2.3076923 2.3076923-2.3076923zm1.5384615 0h4.6153846v-.7692308c0-.4248344-.3443963-.7692308-.7692308-.7692308h-3.076923c-.4248345 0-.7692308.3443964-.7692308.7692308z" transform="translate(-12 -12)"/></svg>