<svg viewBox="0 0 20 20" xmlns="http://www.w3.org/2000/svg"><path d="m5 5v5h5v-5zm-1-2h7c.5522847 0 1 .44771525 1 1v7c0 .5522847-.4477153 1-1 1h-7c-.55228475 0-1-.4477153-1-1v-7c0-.55228475.44771525-1 1-1zm12 2v5h5v-5zm-1-2h7c.5522847 0 1 .44771525 1 1v7c0 .5522847-.4477153 1-1 1h-7c-.5522847 0-1-.4477153-1-1v-7c0-.55228475.4477153-1 1-1zm1 13v5h5v-5zm-1-2h7c.5522847 0 1 .4477153 1 1v7c0 .5522847-.4477153 1-1 1h-7c-.5522847 0-1-.4477153-1-1v-7c0-.5522847.4477153-1 1-1zm-10 2v5h5v-5zm-1-2h7c.5522847 0 1 .4477153 1 1v7c0 .5522847-.4477153 1-1 1h-7c-.55228475 0-1-.4477153-1-1v-7c0-.5522847.44771525-1 1-1z" transform="translate(-3 -3)"/></svg>