<svg viewBox="0 0 22 22" xmlns="http://www.w3.org/2000/svg" xmlns:xlink="http://www.w3.org/1999/xlink"><mask id="a" fill="#fff"><path id="b" d="m13 24c-6.07513225 0-11-4.9248678-11-11 0-6.07513225 4.92486775-11 11-11 6.0751322 0 11 4.92486775 11 11 0 6.0751322-4.9248678 11-11 11zm0-2c4.9705627 0 9-4.0294373 9-9 0-4.97056275-4.0294373-9-9-9-4.97056275 0-9 4.02943725-9 9 0 4.9705627 4.02943725 9 9 9zm1-9.618034 3.4472136 1.7236068c.4939785.2469893.6942028.8476623.4472136 1.3416408-.2469893.4939785-.8476623.6942028-1.3416408.4472136l-4-2c-.338784-.169392-.5527864-.5156551-.5527864-.8944272v-6c0-.55228475.4477153-1 1-1s1 .44771525 1 1z" fill="#fff" fill-rule="evenodd"/></mask><g fill="none" fill-rule="evenodd" transform="translate(-2 -2)"><use fill="#000" fill-rule="nonzero" xlink:href="#b"/><g fill-rule="evenodd" mask="url(#a)"><path d="m0 0h26v26h-26z" fill="#807f98"/></g></g></svg>