<svg viewBox="0 0 20 22" xmlns="http://www.w3.org/2000/svg"><path d="m9 22v-9c0-.5522847.44771525-1 1-1h6c.5522847 0 1 .4477153 1 1v9h3c.5522847 0 1-.4477153 1-1v-10.5109162l-8-6.22222222-8 6.22222222v10.5109162c0 .5522847.44771525 1 1 1zm2 0h4v-8h-4zm-7.61394061-12.78935222 9.00000001-7c.3611105-.28086371.8667707-.28086371 1.2278812 0l9 7c.2435866.1894562.3860594.48076179.3860594.78935222v11c0 1.6568542-1.3431458 3-3 3h-14c-1.65685425 0-3-1.3431458-3-3v-11c0-.30859043.14247284-.59989602.38605939-.78935222z" fill-rule="evenodd" transform="translate(-3 -2)"/></svg>