<svg viewBox="0 0 20 14" xmlns="http://www.w3.org/2000/svg"><path d="m9 8c-.55228475 0-1-.44771525-1-1s.44771525-1 1-1h13c.5522847 0 1 .44771525 1 1s-.4477153 1-1 1zm0 6c-.55228475 0-1-.4477153-1-1s.44771525-1 1-1h13c.5522847 0 1 .4477153 1 1s-.4477153 1-1 1zm0 6c-.55228475 0-1-.4477153-1-1s.44771525-1 1-1h13c.5522847 0 1 .4477153 1 1s-.4477153 1-1 1zm-5-12c-.55228475 0-1-.44771525-1-1s.44771525-1 1-1 1 .44771525 1 1-.44771525 1-1 1zm0 6c-.55228475 0-1-.4477153-1-1s.44771525-1 1-1 1 .4477153 1 1-.44771525 1-1 1zm0 6c-.55228475 0-1-.4477153-1-1s.44771525-1 1-1 1 .4477153 1 1-.44771525 1-1 1z" transform="translate(-3 -6)"/></svg>