<svg viewBox="0 0 22 20" xmlns="http://www.w3.org/2000/svg"><path d="m15 6v1c0 .55228475-.4477153 1-1 1h-2c-.5522847 0-1-.44771525-1-1v-1h-7v14h18v-14zm-4-2v-1c0-.55228475.4477153-1 1-1h2c.5522847 0 1 .44771525 1 1v1h7c1.1045695 0 2 .8954305 2 2v14c0 1.1045695-.8954305 2-2 2h-18c-1.1045695 0-2-.8954305-2-2v-14c0-1.1045695.8954305-2 2-2zm-.5070839 16h-1.94880945c0-.440865.38876953-3.8795055 3.45589335-3.8795055v1.4922783c-.7939173 0-1.5070839 1.5089314-1.5070839 2.3872272zm5.0141678-.0763354c0-.8782957-.7131666-2.3872272-1.5070839-2.3872272v-1.4922782c3.0671238 0 3.4558934 3.4386404 3.4558934 3.8795054zm-2.5070839-10.9236646c2.209139 0 4 1.790861 4 4s-1.790861 4-4 4-4-1.790861-4-4 1.790861-4 4-4zm0 2c-1.1045695 0-2 .8954305-2 2s.8954305 2 2 2 2-.8954305 2-2-.8954305-2-2-2z" transform="translate(-2 -2)"/></svg>