<svg viewBox="0 0 53 53" xmlns="http://www.w3.org/2000/svg" xmlns:xlink="http://www.w3.org/1999/xlink"><linearGradient id="a" x1="-47.469%" x2="129.241%" y1="-43.71%" y2="125.631%"><stop offset="0" stop-color="#00faff"/><stop offset="1" stop-color="#db00ff"/></linearGradient><g fill="none" fill-rule="evenodd"><rect fill="url(#a)" height="52.5" rx="5.25" width="52.5"/><path d="m17.9503788 32.0747475-3.7123106 3.7123106-5.3819129-5.3819129c-2.05025253-2.0502526-2.05025253-5.3743687 0-7.4246212l13.6118055-13.61180557c2.0502526-2.05025253 5.3743687-2.05025253 7.4246212 0l5.3819129 5.38191287-3.7123106 3.7123106-5.3819129-5.3819129-13.6118055 13.6118056zm2.4748737 2.4748737 5.7550189 5.7550189 13.6118056-13.6118055-5.7550189-5.7550189 3.7123106-3.7123106 5.7550189 5.7550189c2.0502525 2.0502525 2.0502525 5.3743686 0 7.4246212l-13.6118056 13.6118055c-2.0502525 2.0502525-5.3743686 2.0502525-7.4246212 0l-5.7550189-5.7550189z" fill="#fff" fill-rule="nonzero"/></g></svg>