<svg viewBox="0 0 53 53" version="1.1" xmlns="http://www.w3.org/2000/svg" xmlns:xlink="http://www.w3.org/1999/xlink">
    <defs>
        <linearGradient x1="-47.4686538%" y1="-43.7102628%" x2="129.240993%" y2="125.631278%" id="linearGradient-1">
            <stop stop-color="#00FAFF" offset="0%"></stop>
            <stop stop-color="#DB00FF" offset="100%"></stop>
        </linearGradient>
        <rect id="path-2" x="0" y="0" width="52.5" height="52.5" rx="5.25"></rect>
    </defs>
    <g id="Symbols" stroke="none" stroke-width="1" fill="none" fill-rule="evenodd">
        <g id="Logo">
            <g id="icon">
                <g>
                    <mask id="mask-3" fill="white">
                        <use xlink:href="#path-2"></use>
                    </mask>
                    <use id="Rectangle" fill="url(#linearGradient-1)" xlink:href="#path-2"></use>
                    <path d="M17.9503788,32.0747475 L14.2380682,35.7870581 L8.8561553,30.4051452 C6.80590277,28.3548926 6.80590277,25.0307765 8.8561553,22.980524 L22.4679608,9.36871843 C24.5182134,7.3184659 27.8423295,7.3184659 29.892582,9.36871843 L35.2744949,14.7506313 L31.5621843,18.4629419 L26.1802714,13.081029 L12.5684659,26.6928346 L17.9503788,32.0747475 Z M20.4252525,34.5496212 L26.1802714,40.3046401 L39.792077,26.6928346 L34.0370581,20.9378157 L37.7493687,17.2255051 L43.5043876,22.980524 C45.5546401,25.0307765 45.5546401,28.3548926 43.5043876,30.4051452 L29.892582,44.0169507 C27.8423295,46.0672032 24.5182134,46.0672032 22.4679608,44.0169507 L16.7129419,38.2619318 L20.4252525,34.5496212 Z" id="Combined-Shape" fill="#FFFFFF" fill-rule="nonzero" mask="url(#mask-3)"></path>
                </g>
            </g>
        </g>
    </g>
</svg>
