<svg viewBox="0 0 22 22" xmlns="http://www.w3.org/2000/svg" xmlns:xlink="http://www.w3.org/1999/xlink"><mask id="a" fill="#fff"><path id="b" d="m21.8828932 13.2971068-8.2971068-8.2971068h-8.5857864v8.5854453l8.2975 8.2878414c.1875683.187777.4420908.2932866.7075.2932866s.5199317-.1055096.7078932-.2936801l7.1687704-7.1687704c.3868525-.3901041.3865637-1.019376.0012296-1.407016zm1.4163141 2.8178932-7.1717073 7.1717133c-.5627048.5633312-1.3262723.87986-2.1225.87986s-1.5597952-.3165288-2.1216948-.8790548l-8.59000003-8.58c-.18778837-.1875698-.29330517-.4421002-.29330517-.7075185v-10c0-.55228475.44771525-1 1-1h10c.2652165 0 .5195704.10535684.7071068.29289322l8.5921005 8.59210678c1.1631708 1.1701124 1.1631708 3.0598876 0 4.23zm-13.2992073-4.615c-.82842712 0-1.5-.6715729-1.5-1.5 0-.82842712.67157288-1.5 1.5-1.5.8284271 0 1.5.67157288 1.5 1.5 0 .8284271-.6715729 1.5-1.5 1.5zm0-1c.2761424 0 .5-.2238576.5-.5 0-.27614237-.2238576-.5-.5-.5-.27614237 0-.5.22385763-.5.5 0 .2761424.22385763.5.5.5z" fill="#fff" fill-rule="evenodd"/></mask><g fill-rule="evenodd" transform="translate(-3 -3)"><use fill-rule="nonzero" xlink:href="#b"/><g fill-rule="evenodd" mask="url(#a)"><path d="m0 0h26v26h-26z" fill="#807f98"/></g></g></svg>
