<svg viewBox="0 0 18 20" version="1.1" xmlns="http://www.w3.org/2000/svg" xmlns:xlink="http://www.w3.org/1999/xlink">
  <g stroke="none" stroke-width="1" fill-rule="evenodd">
    <g transform="translate(-427.000000, -174.000000)">
      <g transform="translate(423.000000, 171.000000)">
        <path d="M22,22 C22,22.5522847 21.5522847,23 21,23 C20.4477153,23 20,22.5522847 20,22 L20,20 C20,18.3431458 18.6568542,17 17,17 L9,17 C7.34314575,17 6,18.3431458 6,20 L6,22 C6,22.5522847 5.55228475,23 5,23 C4.44771525,23 4,22.5522847 4,22 L4,20 C4,17.2385763 6.23857625,15 9,15 L17,15 C19.7614237,15 22,17.2385763 22,20 L22,22 Z M13,13 C10.2385763,13 8,10.7614237 8,8 C8,5.23857625 10.2385763,3 13,3 C15.7614237,3 18,5.23857625 18,8 C18,10.7614237 15.7614237,13 13,13 Z M13,11 C14.6568542,11 16,9.65685425 16,8 C16,6.34314575 14.6568542,5 13,5 C11.3431458,5 10,6.34314575 10,8 C10,9.65685425 11.3431458,11 13,11 Z"></path>
      </g>
    </g>
  </g>
</svg>
