<svg viewBox="0 0 20 21" xmlns="http://www.w3.org/2000/svg"><path d="m18 6.04h2.0049107c1.6314678 0 2.9550893 1.32373738 2.9550893 2.95406028v12.01187942c0 1.6317583-1.3227053 2.9540603-2.9550893 2.9540603h-14.00982141c-1.63146778 0-2.95508929-1.3237374-2.95508929-2.9540603l-.02695705-10.0859397h-.01304295v-4.96593972c0-1.6303229 1.32362151-2.95406028 2.95508929-2.95406028h12.04491071v1.92h-12.04491071c-.57104344 0-1.03508929.46408647-1.03508929 1.03406028v.08593972h1.08 10v-1.04h2zm3.04 13.92h-1.665c-2.9113285 0-5.335-2.0145111-5.335-4.5964444v-.7271112c0-2.5819333 2.4236715-4.5964444 5.335-4.5964444h1.665v-1.04593972c0-.56997381-.4640459-1.03406028-1.0350893-1.03406028h-15.00298843l-.04192227 13.0459397c0 .5699738.46404585 1.0340603 1.03508929 1.0340603h14.00982141c.5721283 0 1.0350893-.4628198 1.0350893-1.0340603zm0-1.92v-6.08h-1.665c-1.9213266 0-3.415 1.2415138-3.415 2.6764444v.7271112c0 1.4349306 1.4936734 2.6764444 3.415 2.6764444zm-1.54-3.4941406c-.2541934 0-.46.2058066-.46.46 0 .2541933.2058066.46.46.46s.46-.2058067.46-.46c0-.2541934-.2058066-.46-.46-.46zm0 1.92c-.8061934 0-1.46-.6538067-1.46-1.46 0-.8061934.6538066-1.46 1.46-1.46s1.46.6538066 1.46 1.46c0 .8061933-.6538066 1.46-1.46 1.46z" transform="translate(-3 -3)"/></svg>